<svg width="39" height="39" viewBox="0 0 39 39" fill="none" xmlns="http://www.w3.org/2000/svg">
<path d="M37.2176 19.0582L29.8594 16.3007V8.03608C29.8594 6.89351 29.151 5.8728 28.077 5.46909L20.4598 2.61265C19.8428 2.37651 19.1572 2.37651 18.5326 2.61265L10.9154 5.46909C9.84141 5.8728 9.13301 6.89351 9.13301 8.03608V16.3007L1.7748 19.0582C0.708398 19.4619 0 20.4826 0 21.6251V30.0117C0 31.0476 0.586523 31.9998 1.51582 32.4644L9.13301 36.273C9.90234 36.6615 10.8164 36.6615 11.5857 36.273L19.5 32.3121L27.4143 36.273C28.1836 36.6615 29.0977 36.6615 29.867 36.273L37.4842 32.4644C38.4135 31.9998 39 31.0476 39 30.0117V21.6251C39 20.4826 38.2916 19.4619 37.2176 19.0582ZM27.2695 16.3617L20.7949 18.7915V13.5966L27.2695 10.7783V16.3617ZM11.7305 7.92944L19.5 5.01968L27.2695 7.92944V7.97515L19.5 11.1287L11.7305 7.97515V7.92944ZM18.1289 30.1031L11.6543 33.3404V27.3152L18.1289 24.3597V30.1031ZM18.1289 21.5718L10.3594 24.7253L2.58984 21.5718V21.5261L10.3594 18.6164L18.1289 21.5261V21.5718ZM36.4102 30.1031L29.9355 33.3404V27.3152L36.4102 24.3597V30.1031ZM36.4102 21.5718L28.6406 24.7253L20.8711 21.5718V21.5261L28.6406 18.6164L36.4102 21.5261V21.5718Z" fill="white"/>
</svg>
