<svg width="38" height="38" viewBox="0 0 38 38" fill="none" xmlns="http://www.w3.org/2000/svg">
<g clip-path="url(#clip0_3_158)">
<path d="M19.0004 2.82865e-05C14.1332 2.82865e-05 9.26603 1.85253 5.55945 5.55911C-1.35972 12.4799 -1.81888 23.4492 4.18353 30.9083C3.85073 30.0165 3.7811 29.0479 3.98292 28.1177C4.18473 27.1875 4.64951 26.3348 5.32195 25.6611C6.07045 24.9137 7.03796 24.4246 8.08367 24.2651C9.12937 24.1057 10.1987 24.2841 11.1359 24.7744C9.68693 22.7916 9.03887 20.3352 9.3211 17.8956C9.60334 15.456 10.7951 13.2125 12.6586 11.6128C14.522 10.0132 16.9202 9.175 19.3744 9.26557C21.8286 9.35613 24.1585 10.3688 25.899 12.1014C26.7665 12.969 27.9432 13.4564 29.1701 13.4564C30.397 13.4564 31.5737 12.969 32.4413 12.1014C33.3089 11.2339 33.7962 10.0572 33.7962 8.83028C33.7962 7.60335 33.3089 6.42668 32.4413 5.55911C30.6775 3.79291 28.5821 2.3926 26.2754 1.4386C23.9688 0.4846 21.4965 -0.00428443 19.0004 2.82865e-05V2.82865e-05ZM33.8204 7.09494C34.1526 7.98666 34.2218 8.95504 34.0198 9.88494C33.8177 10.8148 33.3528 11.6672 32.6804 12.3405C31.9319 13.088 30.9644 13.577 29.9186 13.7365C28.8729 13.896 27.8036 13.7176 26.8664 13.2272C28.2448 15.1068 28.9051 17.4175 28.7279 19.7416C28.5508 22.0657 27.5479 24.2497 25.9005 25.8986C25.033 26.766 24.5455 27.9424 24.5453 29.1692C24.5453 29.7767 24.6648 30.3782 24.8972 30.9394C25.1296 31.5006 25.4703 32.0106 25.8997 32.4402C26.3292 32.8697 26.8391 33.2105 27.4003 33.443C27.9614 33.6756 28.5629 33.7953 29.1703 33.7953C30.3971 33.7955 31.5737 33.3083 32.4413 32.4409C39.3605 25.5218 39.8196 14.5524 33.8188 7.09494H33.8204ZM8.82903 24.5433C8.22136 24.5429 7.61956 24.6622 7.05806 24.8946C6.49655 25.127 5.98637 25.4677 5.55667 25.8974C5.12698 26.3271 4.78621 26.8373 4.55386 27.3988C4.3215 27.9603 4.20212 28.5621 4.20253 29.1698C4.20212 29.7775 4.3215 30.3793 4.55386 30.9408C4.78621 31.5023 5.12698 32.0124 5.55667 32.4421C5.98637 32.8718 6.49655 33.2126 7.05806 33.445C7.61956 33.6773 8.22136 33.7967 8.82903 33.7963C9.43671 33.7967 10.0385 33.6773 10.6 33.445C11.1615 33.2126 11.6717 32.8718 12.1014 32.4421C12.5311 32.0124 12.8719 31.5023 13.1042 30.9408C13.3366 30.3793 13.4559 29.7775 13.4555 29.1698C13.4562 28.5621 13.337 27.9603 13.1048 27.3987C12.8727 26.8371 12.5321 26.3268 12.1025 25.897C11.673 25.4671 11.1629 25.1262 10.6015 24.8936C10.0401 24.6611 9.43829 24.5415 8.83062 24.5417L8.82903 24.5433ZM24.7732 26.866C23.0985 28.0936 21.076 28.7555 18.9996 28.7555C16.9231 28.7555 14.9007 28.0936 13.2259 26.866C13.7158 27.8034 13.894 28.8726 13.7345 29.9182C13.575 30.9638 13.0863 31.9313 12.3393 32.68C11.6656 33.3525 10.8129 33.8172 9.8826 34.0188C8.95231 34.2203 7.98369 34.1503 7.09212 33.8169C14.0208 39.3949 23.9784 39.3949 30.9054 33.8169C30.0141 34.1499 29.0458 34.2198 28.1158 34.0183C27.1858 33.8168 26.3334 33.3522 25.6599 32.68C24.9124 31.9315 24.4234 30.964 24.2639 29.9183C24.1044 28.8726 24.2828 27.8033 24.7732 26.866V26.866Z" fill="white"/>
</g>
<defs>
<clipPath id="clip0_3_158">
<rect width="38" height="38" fill="white"/>
</clipPath>
</defs>
</svg>
